<svg width="47" height="43" viewBox="0 0 47 43" fill="none" xmlns="http://www.w3.org/2000/svg">
<path d="M43.0834 18.8125V27.7708C43.0834 34.0416 39.1667 36.7291 33.2917 36.7291H13.7084C7.83341 36.7291 3.91675 34.0416 3.91675 27.7708V15.2291C3.91675 8.95831 7.83341 6.27081 13.7084 6.27081H27.4167" stroke="#171717" stroke-width="1.5" stroke-miterlimit="10" stroke-linecap="round" stroke-linejoin="round"/>
<path d="M13.7083 16.125L19.8378 20.6042C21.8549 22.0733 25.1645 22.0733 27.1816 20.6042L29.4924 18.92" stroke="#171717" stroke-width="1.5" stroke-miterlimit="10" stroke-linecap="round" stroke-linejoin="round"/>
<path d="M38.1876 14.3333C40.8915 14.3333 43.0834 12.3279 43.0834 9.85417C43.0834 7.38039 40.8915 5.375 38.1876 5.375C35.4837 5.375 33.2917 7.38039 33.2917 9.85417C33.2917 12.3279 35.4837 14.3333 38.1876 14.3333Z" stroke="#171717" stroke-width="1.5" stroke-miterlimit="10" stroke-linecap="round" stroke-linejoin="round"/>
</svg>
