<svg width="47" height="43" viewBox="0 0 47 43" fill="none" xmlns="http://www.w3.org/2000/svg">
<path d="M43.0833 18.8125V27.7708C43.0833 34.0416 39.1666 36.7291 33.2916 36.7291H13.7083C7.83329 36.7291 3.91663 34.0416 3.91663 27.7708V15.2291C3.91663 8.95831 7.83329 6.27081 13.7083 6.27081H27.4166" stroke="#171717" stroke-width="1.5" stroke-miterlimit="10" stroke-linecap="round" stroke-linejoin="round"/>
<path d="M13.7084 16.125L19.838 20.6042C21.855 22.0733 25.1646 22.0733 27.1817 20.6042L29.4925 18.92" stroke="#171717" stroke-width="1.5" stroke-miterlimit="10" stroke-linecap="round" stroke-linejoin="round"/>
<path d="M38.1875 14.3333C40.8914 14.3333 43.0833 12.3279 43.0833 9.85417C43.0833 7.38039 40.8914 5.375 38.1875 5.375C35.4836 5.375 33.2916 7.38039 33.2916 9.85417C33.2916 12.3279 35.4836 14.3333 38.1875 14.3333Z" stroke="#171717" stroke-width="1.5" stroke-miterlimit="10" stroke-linecap="round" stroke-linejoin="round"/>
</svg>
